<svg width="14" height="14" viewBox="0 0 14 14" fill="none" xmlns="http://www.w3.org/2000/svg">
<path fill-rule="evenodd" clip-rule="evenodd" d="M5.90401 13.9967C5.93584 14.0011 5.96816 14.0011 6 13.9967C6.03184 14.0011 6.06416 14.0011 6.096 13.9967C7.10019 13.6677 7.97057 13.2543 8.71145 12.75H6.375C5.75368 12.75 5.25 12.2463 5.25 11.625V4.875C5.25 4.25368 5.75368 3.75 6.375 3.75H11.9997V2.05264C12.0027 1.98839 11.9838 1.92496 11.9458 1.87226C11.9078 1.81956 11.8529 1.78056 11.7897 1.76133L6.09 0.0134197C6.03141 -0.00447325 5.96859 -0.00447325 5.91001 0.0134197L0.210303 1.76133C0.147093 1.78056 0.0922132 1.81956 0.0542332 1.87226C0.0162432 1.92496 -0.0027118 1.98839 0.000313203 2.05264V5.54846C0.000313203 9.9969 1.87522 12.677 5.90401 13.9967Z" fill="url(#paint0_linear_2551_29227)"/>
<path fill-rule="evenodd" clip-rule="evenodd" d="M6.375 4.5C6.16789 4.5 6 4.66789 6 4.875V11.625C6 11.8321 6.16789 12 6.375 12H13.125C13.3321 12 13.5 11.8321 13.5 11.625V4.875C13.5 4.66789 13.3321 4.5 13.125 4.5H6.375ZM10.2631 6.4033C10.0689 6.35269 9.8704 6.46907 9.8198 6.66326L9.0255 9.7105C8.97491 9.9047 9.0913 10.1032 9.2855 10.1538C9.4797 10.2044 9.6781 10.088 9.7287 9.8938L10.523 6.84655C10.5736 6.65237 10.4572 6.45392 10.2631 6.4033ZM10.9451 6.82805C11.0741 6.67433 11.3033 6.65428 11.457 6.78327L12.6248 7.76316C12.7786 7.89215 12.7986 8.12134 12.6696 8.27506C12.666 8.27932 12.6624 8.28347 12.6587 8.28752L11.6685 9.4676C11.5395 9.6213 11.3103 9.6413 11.1566 9.5123C11.0029 9.3834 10.9828 9.1542 11.1118 9.0004L11.8791 8.08605L10.9899 7.33996C10.8362 7.21097 10.8161 6.98178 10.9451 6.82805ZM8.34172 6.78327C8.49544 6.65428 8.72463 6.67433 8.85362 6.82805C8.98262 6.98178 8.96256 7.21097 8.80884 7.33996L7.91968 8.08605L8.68582 8.9991C8.81482 9.1528 8.79476 9.382 8.64104 9.511C8.48731 9.64 8.25812 9.6199 8.12913 9.4662L7.14008 8.28752C7.13636 8.28347 7.13271 8.27932 7.12915 8.27506C7.00015 8.12134 7.02021 7.89215 7.17393 7.76316L8.34172 6.78327Z" fill="url(#paint1_linear_2551_29227)"/>
<defs>
<linearGradient id="paint0_linear_2551_29227" x1="2.46961" y1="-3.21379e-06" x2="18.3892" y2="4.20431" gradientUnits="userSpaceOnUse">
<stop stop-color="#9043C6"/>
<stop offset="1" stop-color="#145DEB"/>
</linearGradient>
<linearGradient id="paint1_linear_2551_29227" x1="4.85417" y1="4.5" x2="15.1667" y2="14.3958" gradientUnits="userSpaceOnUse">
<stop stop-color="#14B7EB"/>
<stop offset="1" stop-color="#145DEB"/>
</linearGradient>
</defs>
</svg>
